<?xml version="1.0" encoding="UTF-8"?>
<svg width="247px" height="84px" viewBox="0 0 247 84" version="1.1" xmlns="http://www.w3.org/2000/svg" xmlns:xlink="http://www.w3.org/1999/xlink">
    <!-- Generator: Sketch 52.3 (67297) - http://www.bohemiancoding.com/sketch -->
    <title>freifunk-flensburg</title>
    <desc>Created with Sketch.</desc>
    <g id="Page-1" stroke="none" stroke-width="1" fill="none" fill-rule="evenodd">
        <g id="freifunk-flensburg">
            <g id="Group">
                <path d="M0,53.3 C0,37.4 12.9,24.5 28.8,24.5 C44.7,24.5 57.6,37.4 57.6,53.3 C57.6,69.2 44.7,82 28.8,82 C12.9,82 0,69.1 0,53.3 Z" id="Path" fill="#FFFFFF"></path>
                <path d="M27.2,41.9 C27.2,18.7 45.8,0 68.9,0 C91.9,0 110.6,18.7 110.6,41.9 C110.6,65.1 91.9,83.7 68.9,83.7 C45.8,83.7 27.2,65 27.2,41.9 Z" id="Path" fill="#FFFFFF"></path>
                <path d="M28.8,76.4 C16,76.4 5.7,66 5.7,53.3 C5.7,40.6 16,30.1 28.8,30.1 C41.5,30.1 51.9,40.5 51.9,53.3 C51.9,66.1 41.5,76.4 28.8,76.4 Z M28.8,31.2 C16.7,31.2 6.8,41.1 6.8,53.3 C6.8,65.5 16.7,75.4 28.8,75.4 C40.9,75.4 50.8,65.5 50.8,53.3 C50.8,41.1 40.9,31.2 28.8,31.2 Z" id="Shape" fill="#DC0267" fill-rule="nonzero"></path>
                <polygon id="Path" fill="#FAB313" points="57.6 48.1 67.2 38.5 76.2 38.5 69.8 44.9 82.5 44.9 82.5 51.3 69.8 51.3 76.2 57.7 67.2 57.7"></polygon>
                <polygon id="Path" fill="#FAB313" points="29.4 48.1 23.7 42.5 18.4 42.5 22.2 46.2 14.7 46.2 14.7 50 22.2 50 18.4 53.8 23.7 53.8"></polygon>
                <path d="M68.9,76.9 C49.6,76.9 34,61.2 34,41.8 C34,22.5 49.7,6.7 68.9,6.7 C88.2,6.7 103.8,22.4 103.8,41.8 C103.8,61.2 88.1,76.9 68.9,76.9 Z M68.9,13.6 C53.4,13.6 40.8,26.3 40.8,41.9 C40.8,57.5 53.4,70.2 68.9,70.2 C84.4,70.1 97,57.5 97,41.9 C97,26.3 84.4,13.6 68.9,13.6 Z" id="Shape" fill="#DC0267" fill-rule="nonzero"></path>
                <path d="M68.9,66.7 C55.3,66.7 44.2,55.6 44.2,41.9 C44.1,28.2 55.2,17 68.9,17 C82.6,17 93.6,28.1 93.6,41.8 C93.6,55.6 82.5,66.7 68.9,66.7 Z M68.9,18.2 C55.9,18.2 45.3,28.8 45.3,41.9 C45.3,55 55.9,65.6 68.9,65.6 C81.9,65.6 92.5,55 92.5,41.9 C92.5,28.8 81.9,18.2 68.9,18.2 Z" id="Shape" fill="#DC0267" fill-rule="nonzero"></path>
            </g>
            <text id="Freifunk-Herford" font-family="SourceSansPro-Bold, Source Sans Pro" font-size="35" font-weight="bold" line-spacing="28" letter-spacing="1" fill="#DC0267">
                <tspan x="111" y="48">Freifunk</tspan>
                <tspan x="111" y="76">Herfor</tspan>
                <tspan x="217.59" y="76">d</tspan>
            </text>
        </g>
    </g>
</svg>